<?xml version="1.0"?>
<svg xmlns:rdf="http://www.w3.org/1999/02/22-rdf-syntax-ns#" xmlns="http://www.w3.org/2000/svg" xmlns:cc="http://web.resource.org/cc/" xmlns:xlink="http://www.w3.org/1999/xlink" xmlns:dc="http://purl.org/dc/elements/1.1/" xmlns:svg="http://www.w3.org/2000/svg" xml:space="preserve" viewBox="-0.312 -0.661 510 454">
		<path d="m41.112 452.48c-22.68 0-41.112-18.51-41.112-41.26 0-7.2 1.872-14.328 5.544-20.52l213.7-370.15c15.912-27.432 55.44-27.36 71.208 0l213.7 370.15c3.672 6.264 5.544 13.392 5.544 20.52 0 22.752-18.36 41.184-41.112 41.256h-427.47z" fill="#ED171F"/>
		<polygon points="52.056 404.96 457.49 404.96 254.81 53.811" fill="#FEB82F"/>
		<path d="m329.11 325.18l6.48 16.848c1.224 2.808 2.448 5.4 3.816 7.992 0.864 1.728 2.088 3.312 3.528 4.68l10.368 10.368c0.864 1.008 1.656 1.872 2.52 2.808 0.648 0.72 1.296 1.584 1.8 2.448 0.504 1.152 1.008 2.304 1.368 3.456 0.216 0.72 0.36 1.44 0.36 2.16 0 0.792-0.144 1.584-0.432 2.376-0.504 1.512-1.08 2.952-1.728 4.464-1.08 2.448-3.168 4.248-5.688 5.04-0.792 0.216-1.584 0.576-2.304 1.008s-1.224 1.224-1.368 2.016l-0.504 3.24h13.752l19.512-18.072-22.032-34.488-3.96-6.48-0.36-2.016-2.448-11.52-3.096-15.768-3.312-26.352c3.24 1.8 5.976 4.32 8.064 7.344l4.392 6.192c1.08 1.368 1.872 2.952 2.376 4.608l5.256 18.216c1.584 3.456 4.392 6.192 7.992 7.632 1.296 0.504 2.664 0.792 4.032 0.792 0.792 0 1.44-0.072 2.16-0.216 2.376-0.432 4.032-2.52 4.032-4.968 0-2.016-1.224-3.888-3.168-4.68-0.792-0.36-1.656-0.792-2.304-1.368-1.224-1.08-2.016-2.52-2.16-4.104l-2.376-21.456c-0.072-1.656-0.648-3.24-1.656-4.464l-12.02-14.48-11.16-12.456c-1.944-2.232-4.32-4.176-6.984-5.616l-10.224-5.616c-0.72-0.648-1.368-1.296-1.944-2.016-1.224-1.656-1.44-3.816-0.576-5.616l5.256-10.944c0.936-1.44 1.512-3.024 1.584-4.68 0.072-0.648 0.072-1.224 0.072-1.872 0-6.264-2.232-12.384-6.336-17.208-1.656-2.016-3.96-3.456-6.552-4.032-1.872-0.432-3.672-0.648-5.616-0.648-6.552 0-12.888 2.664-17.568 7.344-1.368 1.44-2.16 3.24-2.16 5.184l-0.144 7.128v0.288c0 0.504 0.072 1.008 0.216 1.512l3.816 11.952c0.288 0.432 0.576 0.864 0.864 1.224 2.232 2.52 4.68 4.752 7.344 6.624 0.72 0.576 1.224 1.512 1.224 2.52 0 0.792-0.36 1.584-0.936 2.16-1.512 1.44-3.024 2.952-4.536 4.536-3.456 3.6-6.048 7.848-7.632 12.384l-3.528 10.224-6.192 17.856-4.536 0.36c-0.432-1.224-1.152-2.304-2.232-3.024l-0.36-0.288c1.872-9.936 2.808-19.8 2.808-29.808v-3.672l-0.144-5.688c-0.144-1.44-0.72-2.88-1.728-3.888-1.44-1.44-2.952-3.096-4.392-4.752-4.968-5.76-10.584-11.016-16.632-15.768-2.448-1.944-5.112-4.032-7.776-6.048-4.536-3.528-8.496-5.616-12.672-6.984l-6.192-2.016c-1.08-0.72-2.016-1.656-2.736-2.736-1.512-2.16-1.008-5.184 1.224-6.696 4.248-2.952 5.904-4.104 7.488-5.256 0.504-0.288 1.872-2.16 2.448-4.248 0.576-1.8 1.008-3.6 1.296-5.4 0.216-1.8 0.36-3.672 0.36-5.472 0-5.544-1.296-10.944-3.744-15.84-1.8-3.6-5.472-5.832-9.504-5.832h-0.288c-2.808 0-5.76 0-8.568-0.072h-0.576c-1.08 0-2.016 0.072-3.024 0.288 1.584-0.36 0.288-0.072-0.936 0.216-5.256 1.152-7.2 2.016-9 3.168-1.224 0.792-2.16 1.8-2.952 2.952-0.504 0.72-1.008 1.368-1.584 1.944-1.152 1.152-1.728 2.664-1.8 4.32l-0.216 12.528v0.936c0 3.096 0.576 6.12 1.872 8.928 0.576 1.44 1.584 2.664 2.88 3.456 1.44 0.936 2.736 1.8 4.032 2.808 0.936 0.648 1.584 1.8 1.728 3.096v0.504c0 2.736-1.656 5.112-4.176 6.048-1.656 0.504-3.24 1.224-4.752 1.944s-3.24 1.512-4.968 2.376c-1.584 0.648-2.952 1.512-4.248 2.376-1.44 1.008-2.592 2.304-3.384 3.744l-21.024 38.448-20.16 14.4c-2.52 2.016-5.184 3.888-7.992 5.544-1.44 0.864-2.664 2.016-3.6 3.456-0.288 0.432-0.36 0.864-0.36 1.296 0 0.648 0.144 1.152 0.504 1.656 1.8 2.16 3.96 4.032 6.48 5.4 1.296 0.792 2.808 1.152 4.32 1.224h0.216c1.728 0 3.168-1.296 3.312-3.096l0.216-3.24c-0.144-0.576 0.144-1.152 0.72-1.368l24.984-8.208 13.176-16.704c-2.664 6.84-5.76 13.824-9.216 20.52-4.104 8.064-9.432 15.192-15.84 21.312l-1.944 1.872c5.328 4.968 11.448 9 18.072 11.88l1.8 0.792c-2.88 5.832-4.68 12.24-5.328 18.864-0.288 2.736-0.504 5.544-0.648 8.424-0.288 4.824-1.008 9.576-2.16 14.328-0.936 3.672-2.016 7.344-3.24 11.016-0.72 2.232-2.016 4.248-3.672 5.904-2.232 2.088-4.752 3.816-7.56 4.968-4.608 1.872-9.504 3.024-14.544 3.456-1.008 0.144-1.872 0.288-2.736 0.648-1.008 0.432-1.944 1.008-2.88 1.584-0.864 0.72-1.44 1.584-1.656 2.664l-0.576 2.88 39.744 8.352c2.304-2.016 3.672-4.896 3.672-7.992v-0.288c-0.072-2.304-0.144-4.68-0.288-7.128-0.216-2.808 0.432-5.04 1.8-6.912 3.168-4.536 6.048-8.784 8.784-13.104 2.88-4.536 5.112-9.864 6.408-15.48 0.792-3.528 1.224-7.2 1.224-10.872 0-2.376 0.36-4.824 1.008-7.2 0.504-2.016 1.512-3.888 2.952-5.4l1.656-1.872c4.968 1.152 10.008 1.656 15.048 1.656h1.584l2.16-0.072v0.576c0 4.392 0.864 8.712 2.592 12.816 2.376 5.76 5.112 11.448 8.28 16.776 1.8 3.096 3.096 6.696 3.744 10.44 0.432 2.952 0.936 5.76 1.584 8.496 0.144 0.72 0.288 1.512 0.288 2.232 0 0.936-0.144 1.8-0.432 2.736-0.576 2.088-1.8 3.888-3.6 5.04-2.016 1.368-4.32 2.808-6.624 4.176-2.592 1.44-4.896 3.312-6.912 5.472-0.864 0.864-1.296 2.016-1.296 3.168v1.584h38.664c0.432-1.512 0.648-3.096 0.648-4.68 0-2.448-0.504-4.896-1.44-7.128l-3.096-7.272c-0.72-1.224-1.08-2.592-1.224-4.032l-0.936-11.376-0.216-5.76-0.072-4.896c0.072-0.576 0.072-1.152 0.072-1.656 0-1.728-0.216-3.456-0.576-5.184-0.288-1.296-0.576-2.664-0.864-4.032-0.432-2.16-1.152-4.104-2.232-5.904-2.088-3.528-3.312-7.488-3.528-11.592l-0.144-3.312c7.992-2.016 15.696-5.4 22.68-9.864l2.304-1.44-5.904-9.864-4.032-8.352-6.768-16.56-3.816-11.808-4.608-18 20.304 12.24c0.576 0.576 0.936 1.224 1.008 1.944l1.296 10.08 0.504 5.832 0.288 8.136c0.072 0.504 0.072 1.008 0.072 1.512 0 1.296-0.216 2.592-0.648 3.816-0.72 1.8-1.224 3.816-1.44 5.832v0.504c0 0.936 0.288 1.872 0.864 2.664 1.584 2.16 3.744 3.888 6.192 5.04 0.288 0.072 0.576 0.144 0.936 0.144 0.288 0 0.72-0.072 1.008-0.288 0.36-0.216 0.792-0.288 1.224-0.216 0.36 0.072 0.648 0.072 1.008 0.072h0.216c0.576 0 1.224 0.144 1.728 0.36 4.464 1.872 9.288 2.88 14.184 2.88h2.232l7.416-15.912c0.432 5.04 0.648 10.008 0.648 14.904 0 6.48-0.36 12.96-1.08 19.44-0.432 4.032-1.296 7.776-2.664 11.448l-1.656 4.32-2.88 8.64-4.464 16.056-2.376 8.424c-1.08 1.728-2.592 3.312-4.32 4.392-1.224 0.792-2.448 1.368-3.744 1.872-1.368 0.504-2.88 1.008-4.392 1.512l-4.68 1.512c-1.224 0.504-2.016 1.656-2.16 2.952l-0.432 3.384 30.384 5.472 7.992-25.848 3.6-10.368 1.512-3.6 6.048-12.456 7.16-13.06z"/>
<metadata><rdf:RDF><cc:Work><dc:format>image/svg+xml</dc:format><dc:type rdf:resource="http://purl.org/dc/dcmitype/StillImage"/><cc:license rdf:resource="http://creativecommons.org/licenses/publicdomain/"/><dc:publisher><cc:Agent rdf:about="http://openclipart.org/"><dc:title>Openclipart</dc:title></cc:Agent></dc:publisher><dc:title>children crossing road sign</dc:title><dc:date>2006-11-01T21:15:07</dc:date><dc:description> Swedish Road Signs Collection on Wikicommons - &#xD;\n  URL http://commons.wikimedia.org/wiki/Category:Road_signs_of_Sweden&#xD;\n  &#xD;\n  information about why this image is in the public domain can be found there.</dc:description><dc:source>http://openclipart.org/detail/1133/children-crossing-road-sign-by-ryanlerch</dc:source><dc:creator><cc:Agent><dc:title>ryanlerch</dc:title></cc:Agent></dc:creator><dc:subject><rdf:Bag><rdf:li>boy</rdf:li><rdf:li>child</rdf:li><rdf:li>clip art</rdf:li><rdf:li>clipart</rdf:li><rdf:li>crossing</rdf:li><rdf:li>externalsource</rdf:li><rdf:li>girl</rdf:li><rdf:li>image</rdf:li><rdf:li>media</rdf:li><rdf:li>png</rdf:li><rdf:li>public domain</rdf:li><rdf:li>roadsign</rdf:li><rdf:li>sign</rdf:li><rdf:li>svg</rdf:li><rdf:li>sweden</rdf:li><rdf:li>wikimedia commons</rdf:li></rdf:Bag></dc:subject></cc:Work><cc:License rdf:about="http://creativecommons.org/licenses/publicdomain/"><cc:permits rdf:resource="http://creativecommons.org/ns#Reproduction"/><cc:permits rdf:resource="http://creativecommons.org/ns#Distribution"/><cc:permits rdf:resource="http://creativecommons.org/ns#DerivativeWorks"/></cc:License></rdf:RDF></metadata></svg>
